<svg xmlns="http://www.w3.org/2000/svg" viewBox="0 0 64 64">
  <defs>
    <radialGradient id="g" cx="50%" cy="40%" r="50%">
      <stop offset="0%" stop-color="#ffd700"/>
      <stop offset="60%" stop-color="#ff6b2b"/>
      <stop offset="100%" stop-color="#cc3300"/>
    </radialGradient>
  </defs>
  <!-- Aura -->
  <circle cx="32" cy="32" r="28" fill="none" stroke="#ff6b2b" stroke-width="1" opacity="0.3"/>
  <circle cx="32" cy="32" r="22" fill="none" stroke="#ff8c00" stroke-width="1" opacity="0.2"/>
  <!-- Body -->
  <ellipse cx="32" cy="36" rx="10" ry="14" fill="url(#g)"/>
  <!-- Head -->
  <ellipse cx="32" cy="20" rx="8" ry="9" fill="url(#g)"/>
  <!-- Crest flame -->
  <path d="M28,14 C26,6 24,0 26,-4 C28,0 29,6 31,12 Z" fill="#ffd700" opacity="0.9"/>
  <path d="M32,12 C33,4 35,-2 36,-6 C35,0 34,6 33,12 Z" fill="#ff8c00" opacity="0.9"/>
  <path d="M36,14 C38,6 40,0 39,-4 C37,0 36,6 34,12 Z" fill="#ffd700" opacity="0.9"/>
  <!-- Beak -->
  <polygon points="38,20 46,22 38,24" fill="#ffd700"/>
  <!-- Eye -->
  <circle cx="36" cy="18" r="2" fill="#fff"/>
  <!-- Left wing -->
  <path d="M24,32 C14,26 6,22 4,18 C10,22 18,28 24,34 Z" fill="url(#g)" opacity="0.8"/>
  <path d="M26,36 C18,32 12,28 4,26 C12,30 20,34 26,38 Z" fill="#ff4500" opacity="0.6"/>
  <!-- Right wing -->
  <path d="M40,32 C50,26 58,22 60,18 C54,22 46,28 40,34 Z" fill="url(#g)" opacity="0.8"/>
  <path d="M38,36 C46,32 52,28 60,26 C52,30 44,34 38,38 Z" fill="#ff4500" opacity="0.6"/>
</svg>
